<svg width="270" height="157" viewBox="0 0 270 157" fill="none" xmlns="http://www.w3.org/2000/svg">
<rect x="0.00380325" y="0.551208" width="269.689" height="156.428" fill="#FCF6EA"/>
<path d="M81.3167 70.2771H81.1887C80.8367 70.2771 80.6127 70.4051 80.6127 70.9171V79.9731C80.9007 78.4691 82.5327 77.3171 84.4847 77.3171C87.2687 77.3171 88.9007 79.6851 88.9007 82.6291C88.9007 86.4371 86.5967 90.0851 82.5007 90.0851C79.2047 90.0851 77.6687 87.5251 77.6687 84.7091V71.0131C77.6687 67.9731 78.9167 67.3651 81.0607 67.3651H81.3167C82.0847 67.3651 82.6927 67.7811 82.6927 68.8051C82.6927 69.7971 82.0847 70.2771 81.3167 70.2771ZM82.6287 87.2051C84.5807 87.2051 85.6047 84.6131 85.6047 82.7251C85.6047 81.4451 85.1247 80.1971 83.5567 80.1971C81.8287 80.1971 80.6767 81.6691 80.6127 84.0051V84.3251C80.6127 85.7971 81.2207 87.2051 82.6287 87.2051ZM97.0247 90.0851C93.0887 90.0851 90.4327 87.1091 90.4327 83.6851C90.4327 80.1011 92.8967 77.3171 96.8007 77.3171C100.545 77.3171 102.305 79.5571 102.305 81.6371C102.305 83.8771 100.609 85.5411 97.5687 85.5411C97.0247 85.5411 96.3527 85.4131 95.8407 85.1891C95.3607 84.9651 94.9767 84.5811 94.9767 83.9091C94.9767 83.1731 95.5527 82.4371 96.3847 82.4691C96.7687 82.4691 97.3127 82.7251 97.7607 82.7251C98.5927 82.7251 99.1047 82.2131 99.1047 81.5411C99.1047 80.7411 98.4647 80.1331 96.8327 80.1331C94.8487 80.1331 93.6327 81.7331 93.6327 83.6851C93.6327 85.6051 95.0407 87.2691 97.2807 87.2691C98.5927 87.2691 99.4887 86.9491 100.417 86.3731C100.737 86.1811 101.057 86.0851 101.345 86.0851C101.857 86.0851 102.273 86.3411 102.465 86.7251C102.849 87.5571 102.561 88.3571 101.761 88.8691C100.673 89.5731 99.3287 90.0851 97.0247 90.0851ZM110.65 90.0851C106.714 90.0851 104.058 87.1091 104.058 83.6851C104.058 80.1011 106.522 77.3171 110.426 77.3171C114.17 77.3171 115.93 79.5571 115.93 81.6371C115.93 83.8771 114.234 85.5411 111.194 85.5411C110.65 85.5411 109.978 85.4131 109.466 85.1891C108.986 84.9651 108.602 84.5811 108.602 83.9091C108.602 83.1731 109.178 82.4371 110.01 82.4691C110.394 82.4691 110.938 82.7251 111.386 82.7251C112.218 82.7251 112.73 82.2131 112.73 81.5411C112.73 80.7411 112.09 80.1331 110.458 80.1331C108.474 80.1331 107.258 81.7331 107.258 83.6851C107.258 85.6051 108.666 87.2691 110.906 87.2691C112.218 87.2691 113.114 86.9491 114.042 86.3731C114.362 86.1811 114.682 86.0851 114.97 86.0851C115.482 86.0851 115.898 86.3411 116.09 86.7251C116.474 87.5571 116.186 88.3571 115.386 88.8691C114.298 89.5731 112.954 90.0851 110.65 90.0851ZM118.579 88.5491V71.0131C118.579 67.9731 119.827 67.3651 121.971 67.3651H122.227C122.995 67.3651 123.603 67.7811 123.603 68.8051C123.603 69.7971 122.995 70.2771 122.227 70.2771H122.099C121.747 70.2771 121.523 70.4051 121.523 70.9171V79.7491C122.163 78.2131 123.795 77.3171 125.363 77.3171C127.347 77.3171 128.851 78.5651 128.851 81.1251V86.7251C128.851 87.2051 128.947 87.3011 129.171 87.3011C129.331 87.3011 129.491 87.2051 129.715 87.0451C130.643 86.4051 131.539 87.1731 131.539 88.0691C131.539 88.4531 131.379 88.8691 130.963 89.1891C130.579 89.5091 130.035 89.9891 128.723 89.9891C127.027 89.9891 125.907 89.0931 125.907 86.7891V81.8291C125.907 80.5171 125.331 80.1971 124.659 80.1971C123.283 80.1971 121.619 81.5411 121.523 84.3891V88.5491C121.523 89.5091 120.787 89.9891 120.019 89.9891C119.315 89.9891 118.579 89.5091 118.579 88.5491ZM135.61 89.9891C133.914 89.9891 132.794 89.0931 132.794 86.7891V78.7571C132.794 77.7971 133.498 77.3171 134.266 77.3171C135.002 77.3171 135.738 77.7971 135.738 78.7571V86.7251C135.738 87.2051 135.834 87.3011 136.058 87.3011C136.218 87.3011 136.378 87.2051 136.602 87.0451C137.53 86.4051 138.426 87.1731 138.426 88.0691C138.426 88.4531 138.266 88.8691 137.85 89.1891C137.466 89.5091 136.922 89.9891 135.61 89.9891ZM134.394 71.3331C135.45 71.3331 136.314 72.1971 136.314 73.2531C136.314 74.3731 135.45 75.1411 134.394 75.1411C133.338 75.1411 132.506 74.3731 132.506 73.2531C132.506 72.1971 133.338 71.3331 134.394 71.3331ZM149.525 79.3011L145.717 88.8691C145.397 89.6691 144.853 90.0851 144.149 90.0851C143.445 90.0851 142.901 89.6691 142.613 88.9331L138.677 79.1091C138.613 78.9811 138.613 78.9171 138.613 78.6931C138.613 77.8611 139.349 77.3171 140.085 77.3171C140.597 77.3171 141.109 77.5731 141.397 78.1491L144.149 86.0851L146.933 78.1491C147.157 77.6051 147.733 77.3171 148.213 77.3171C148.917 77.3171 149.685 77.8611 149.685 78.6931C149.685 78.8851 149.621 79.0771 149.525 79.3011ZM157.462 90.0851C153.526 90.0851 150.87 87.1091 150.87 83.6851C150.87 80.1011 153.334 77.3171 157.238 77.3171C160.982 77.3171 162.742 79.5571 162.742 81.6371C162.742 83.8771 161.046 85.5411 158.006 85.5411C157.462 85.5411 156.79 85.4131 156.278 85.1891C155.798 84.9651 155.414 84.5811 155.414 83.9091C155.414 83.1731 155.99 82.4371 156.822 82.4691C157.206 82.4691 157.75 82.7251 158.198 82.7251C159.03 82.7251 159.542 82.2131 159.542 81.5411C159.542 80.7411 158.902 80.1331 157.27 80.1331C155.286 80.1331 154.07 81.7331 154.07 83.6851C154.07 85.6051 155.478 87.2691 157.718 87.2691C159.03 87.2691 159.926 86.9491 160.854 86.3731C161.174 86.1811 161.494 86.0851 161.782 86.0851C162.294 86.0851 162.71 86.3411 162.902 86.7251C163.286 87.5571 162.998 88.3571 162.198 88.8691C161.11 89.5731 159.766 90.0851 157.462 90.0851Z" fill="#27231B"/>
<rect x="176.808" y="63.0704" width="8.08004" height="4.67792" rx="2.33896" fill="#D78B00"/>
<rect x="171.918" y="69.7483" width="17.8611" height="4.67792" rx="2.33896" fill="#D78B00"/>
<rect x="168.197" y="76.4262" width="25.3033" height="4.67792" rx="2.33896" fill="#D78B00"/>
<rect x="171.918" y="83.1041" width="17.8611" height="4.67792" rx="2.33896" fill="#D78B00"/>
<rect x="176.808" y="89.782" width="8.08004" height="4.67792" rx="2.33896" fill="#D78B00"/>
</svg>
