<?xml version="1.0" encoding="utf-8"?>
<!-- Generator: Adobe Illustrator 27.7.0, SVG Export Plug-In . SVG Version: 6.00 Build 0)  -->
<svg version="1.1" id="Layer_1" xmlns="http://www.w3.org/2000/svg" xmlns:xlink="http://www.w3.org/1999/xlink" x="0px" y="0px"
	 viewBox="0 0 515 504" style="enable-background:new 0 0 515 504;" xml:space="preserve">
<style type="text/css">
	.st0{fill:#6FA7B3;}
	.st1{opacity:0.5;}
	.st2{fill:#FFFFFF;}
</style>
<g id="Group_108" transform="translate(276.126 -1798.596)">
	<rect id="Rectangle_60" x="-276.1" y="1798.6" class="st0" width="515" height="504"/>
	<g id="Group_104" transform="translate(767.399 -1220.676) rotate(-8)" class="st1">
		<g id="Component_1_4" transform="translate(-1465 2925.982)">
			<g id="Group_76">
				<g id="Group_75">
					<path id="Path_245" class="st2" d="M128.9,69.1c15.8-5.5,30.5-13.9,46.6-18.7c53.7-16,123,2.6,147.5,65.8
						c13.9,36,1.6,68.2-35.1,87.3c-23.1,12-47.1,21.3-73.2,24.6c-2.6,0.3-6.7,1.1-7.4,2.9c-1.5,3.6,2.7,5,5,6.9
						c27.5,22.8,46.5,51,57,85.5c13,42.5-15.6,85.6-60,88.9c-35.5,2.6-64.9-12.5-93.2-30.9c-16.5-10.7-30.8-23.9-44.6-37.9
						c-2.5-2.5-4.6-8-9-5.9c-2.1,1-2.8,6.2-3.1,9.6c-3.3,37.4-19.6,69.1-43.2,97.3c-26.7,31.9-71.1,40.5-103.8,19.3
						c-24.3-15.7-35.9-40.4-38.2-68.5c-3.2-39.6,9-76.1,27.2-110.7c7.7-14.7,7.7-14.2-8.7-15.4c-39.5-2.7-78.3-8.8-111.9-31.9
						c-27.1-18.6-44.9-43.3-41.9-77.7c3.2-37.6,23.7-64.1,58.1-79c34.6-15,70.2-11.8,105.4-2.8c14.7,3.8,29.9,6.7,43.6,14
						c2.5,1.3,5.7,1.8,7.7-0.4c2.4-2.6,1.3-6.3,0.1-8.9c-7.4-15.3-12-31.6-15.7-48C-70.8-4.8-73.6-43.6-50.9-79.8
						c19.6-31.2,68.7-49.4,104.5-41.3c45.8,10.3,76.2,51.1,81.6,96.8c3.4,28.3,1.7,55.6-7.5,82.6C126.7,61.5,126.9,65.2,128.9,69.1
						 M31.7,232c25.7,0.3,50.4-22,50.7-45.8c0.3-22.8-19.4-41.8-43.4-41.8c-26.1,0-50.9,22.3-51.1,45.8
						C-12.1,212.4,8.1,231.7,31.7,232"/>
					<path id="Path_246" class="st2" d="M80.7,186.2C80.4,210,55.7,232.3,30,232c-23.6-0.3-43.9-19.6-43.7-41.8
						c0.1-23.5,25-45.8,51.1-45.8C61.3,144.3,81,163.4,80.7,186.2"/>
				</g>
			</g>
		</g>
		
			<ellipse id="Ellipse_8" transform="matrix(-1 2.632331e-06 -2.632331e-06 -1 -2848.0691 6241.6001)" class="st2" cx="-1424" cy="3120.8" rx="90.8" ry="75.6"/>
	</g>
	<g id="Group_106" transform="translate(2188.965 -857.696) rotate(8)" class="st1">
		<g id="Component_1_5" transform="translate(-1465 2925.982)">
			<g id="Group_76-2">
				<g id="Group_75-2">
					<path id="Path_245-2" class="st2" d="M-177.1,7.1c4.4-1.5,8.4-3.8,12.9-5.2c14.9-4.4,34.1,0.7,40.9,18.2
						c3.9,10,0.4,18.9-9.7,24.2c-6.3,3.5-13.2,5.8-20.3,6.8c-0.7,0.1-1.8,0.3-2,0.8c-0.4,1,0.8,1.4,1.4,1.9
						c7.5,6.1,13,14.4,15.8,23.7c3.2,9.9-2.3,20.6-12.2,23.8c-1.4,0.5-2.9,0.7-4.4,0.9c-9.8,0.7-18-3.5-25.8-8.6
						c-4.5-3-8.6-6.6-12.4-10.5c-0.7-0.7-1.3-2.2-2.5-1.6c-0.6,0.3-0.8,1.7-0.9,2.7c-0.9,10.4-5.4,19.2-12,27
						c-7.4,8.8-19.7,11.2-28.8,5.4c-6.7-4.4-9.9-11.2-10.6-19c-0.9-11,2.5-21.1,7.5-30.7c2.1-4.1,2.1-3.9-2.4-4.3
						c-11-0.8-21.7-2.4-31-8.9c-7.5-5.2-12.4-12-11.6-21.5c0.9-10.4,6.6-17.8,16.1-21.9c9.6-4.2,19.5-3.3,29.2-0.8
						c4.1,1,8.3,1.8,12.1,3.9c0.7,0.5,1.5,0.4,2.1-0.1c0.5-0.7,0.5-1.7,0-2.5c-2-4.3-3.4-8.7-4.3-13.3c-2.4-10.9-3.2-21.6,3.1-31.7
						c5.4-8.6,19-13.7,29-11.5c12.7,2.9,21.1,14.2,22.6,26.8c1.1,7.7,0.4,15.5-2.1,22.9C-177.7,5.1-177.6,6.2-177.1,7.1 M-204,52.3
						c7.1,0.1,14-6.1,14.1-12.7c0.1-6.3-5.4-11.6-12-11.6c-7.2,0-14.1,6.2-14.2,12.7C-216.2,46.8-210.6,52.2-204,52.3"/>
					<path id="Path_246-2" class="st2" d="M-190.4,39.6c-0.1,6.6-6.9,12.8-14.1,12.7c-6.6-0.1-12.2-5.4-12.1-11.6
						c0-6.5,6.9-12.7,14.2-12.7C-195.8,28-190.4,33.2-190.4,39.6"/>
				</g>
			</g>
		</g>
		
			<ellipse id="Ellipse_8-2" transform="matrix(2.438033e-06 1 -1 2.438033e-06 1301.4924 4634.3994)" class="st2" cx="-1666.5" cy="2967.9" rx="21" ry="25.2"/>
	</g>
</g>
</svg>
