<?xml version="1.0" encoding="UTF-8"?><svg id="Layer_2" xmlns="http://www.w3.org/2000/svg" viewBox="0 0 350.64 151.9"><defs><style>.cls-1{fill:#d1f7ff;}.cls-2{fill:#6fa7b3;}</style></defs><g id="new_logo"><g><path class="cls-2" d="M180.8,32.46c2.66-3.59,4.63-7.62,7.47-11.1,9.43-11.56,27.5-17.86,42.34-7.6,8.47,5.86,10.57,14.78,5.34,24.51-3.28,6.11-7.18,11.76-12.44,16.39-.53,.47-1.3,1.25-1.2,1.73,.21,1.01,1.35,.71,2.14,.78,9.48,.9,17.89,4.27,25.37,10.28,9.24,7.42,9.38,21.21,.1,28.58-7.42,5.89-16.16,6.97-25.16,7.16-5.23,.12-10.37-.66-15.5-1.66-.93-.18-2.22-1.07-2.87,.04-.31,.54,.31,1.79,.75,2.58,4.87,8.74,6.03,18.17,5.05,27.92-1.1,11.03-9.6,19.58-19.99,19.81-7.7,.17-13.96-3.52-18.67-9.37-6.65-8.25-9.41-18.11-10.6-28.47-.51-4.39-.43-4.3-4.22-2.08-9.12,5.32-18.57,9.79-29.45,9.73-8.76-.05-16.37-2.82-20.88-10.85-4.92-8.77-4.38-17.66,.97-26.12,5.37-8.49,13.69-13.11,22.81-16.41,3.81-1.38,7.58-3.01,11.69-3.45,.74-.08,1.52-.47,1.64-1.24,.15-.93-.65-1.58-1.33-1.97-3.92-2.28-7.37-5.16-10.65-8.23-7.81-7.33-14.24-15.47-14.65-26.83-.35-9.81,7.73-21.18,16.84-24.77,11.65-4.59,24.44-.16,32.48,9.09,4.98,5.73,8.72,12,10.71,19.32,.24,.88,.85,1.65,1.87,2.23Zm3,50.44c5.71-3.79,7.81-12.41,4.31-17.7-3.35-5.07-10.55-6.3-15.82-2.7-5.74,3.91-7.88,12.55-4.39,17.74,3.31,4.92,10.66,6.15,15.91,2.67Z"/><path class="cls-1" d="M188.11,65.21c3.5,5.29,1.4,13.9-4.31,17.7-5.25,3.49-12.6,2.25-15.91-2.67-3.49-5.19-1.35-13.83,4.39-17.74,5.27-3.59,12.47-2.36,15.82,2.7Z"/></g><g><path class="cls-2" d="M311.37,86.69c1.37-1.85,2.39-3.93,3.86-5.73,4.87-5.97,14.21-9.23,21.87-3.93,4.38,3.02,5.46,7.64,2.76,12.66-1.7,3.16-3.71,6.08-6.43,8.46-.27,.24-.67,.65-.62,.9,.11,.52,.7,.36,1.11,.4,4.9,.47,9.24,2.21,13.11,5.31,4.77,3.84,4.85,10.95,.05,14.76-3.83,3.04-8.35,3.6-13,3.7-2.7,.06-5.36-.34-8-.86-.48-.09-1.15-.55-1.48,.02-.16,.28,.16,.92,.39,1.33,2.52,4.51,3.11,9.39,2.61,14.42-.57,5.7-4.96,10.12-10.33,10.23-3.98,.09-7.21-1.82-9.64-4.84-3.43-4.26-4.86-9.35-5.48-14.71-.26-2.27-.22-2.22-2.18-1.08-4.71,2.75-9.59,5.06-15.21,5.03-4.52-.02-8.46-1.46-10.78-5.6-2.54-4.53-2.26-9.12,.5-13.49,2.77-4.39,7.07-6.77,11.78-8.48,1.97-.71,3.92-1.56,6.04-1.78,.38-.04,.79-.24,.85-.64,.08-.48-.34-.82-.68-1.02-2.02-1.18-3.81-2.66-5.5-4.25-4.04-3.78-7.36-7.99-7.57-13.86-.18-5.07,3.99-10.94,8.7-12.79,6.02-2.37,12.63-.08,16.78,4.69,2.57,2.96,4.5,6.2,5.53,9.98,.12,.46,.44,.85,.97,1.15Zm1.55,26.06c2.95-1.96,4.03-6.41,2.23-9.14-1.73-2.62-5.45-3.25-8.17-1.4-2.97,2.02-4.07,6.48-2.27,9.16,1.71,2.54,5.51,3.18,8.22,1.38Z"/><path class="cls-1" d="M315.14,103.61c1.81,2.73,.72,7.18-2.23,9.14-2.71,1.8-6.51,1.16-8.22-1.38-1.8-2.68-.7-7.14,2.27-9.16,2.72-1.86,6.44-1.22,8.17,1.4Z"/></g><g><path class="cls-2" d="M40.24,85.54c1.03-3.78,2.96-7.02,5.53-9.98,4.15-4.78,10.76-7.06,16.78-4.69,4.71,1.85,8.88,7.73,8.7,12.79-.21,5.87-3.53,10.08-7.57,13.86-1.69,1.59-3.48,3.08-5.5,4.25-.35,.2-.76,.54-.68,1.02,.06,.4,.47,.6,.85,.64,2.12,.23,4.07,1.07,6.04,1.78,4.71,1.7,9.01,4.09,11.78,8.48,2.76,4.37,3.04,8.96,.5,13.49-2.33,4.15-6.26,5.58-10.78,5.6-5.62,.03-10.5-2.28-15.21-5.03-1.96-1.14-1.92-1.19-2.18,1.08-.62,5.35-2.04,10.44-5.48,14.71-2.43,3.02-5.67,4.93-9.64,4.84-5.37-.12-9.75-4.53-10.33-10.23-.5-5.04,.09-9.91,2.61-14.42,.23-.41,.55-1.05,.39-1.33-.33-.58-1-.12-1.48-.02-2.65,.52-5.3,.92-8,.86-4.65-.1-9.16-.66-13-3.7-4.79-3.81-4.72-10.93,.05-14.76,3.87-3.11,8.21-4.84,13.11-5.31,.41-.04,1,.12,1.11-.4,.05-.25-.34-.65-.62-.9-2.72-2.39-4.73-5.31-6.43-8.46-2.7-5.02-1.62-9.63,2.76-12.66,7.66-5.3,17-2.04,21.87,3.93,1.47,1.8,2.49,3.88,3.86,5.73,.53-.3,.84-.69,.97-1.15Zm5.7,25.83c1.8-2.68,.7-7.14-2.27-9.16-2.73-1.86-6.44-1.22-8.17,1.4-1.81,2.73-.73,7.18,2.23,9.14,2.71,1.8,6.51,1.16,8.22-1.38Z"/><path class="cls-1" d="M35.5,103.61c-1.81,2.73-.72,7.18,2.23,9.14,2.71,1.8,6.51,1.16,8.22-1.38,1.8-2.68,.7-7.14-2.27-9.16-2.72-1.86-6.44-1.22-8.17,1.4Z"/></g></g></svg>