<?xml version="1.0" encoding="UTF-8" standalone="no"?><!DOCTYPE svg PUBLIC "-//W3C//DTD SVG 1.1//EN" "http://www.w3.org/Graphics/SVG/1.1/DTD/svg11.dtd"><svg width="100%" height="100%" viewBox="0 0 625 625" version="1.1" xmlns="http://www.w3.org/2000/svg" xmlns:xlink="http://www.w3.org/1999/xlink" xml:space="preserve" xmlns:serif="http://www.serif.com/" style="fill-rule:evenodd;clip-rule:evenodd;stroke-linejoin:round;stroke-miterlimit:2;"><rect id="Artboard1" x="0" y="0" width="625" height="625" style="fill:none;"/><path d="M587.528,547.439c5.314,5.314 8.303,12.529 8.303,20.045c0,15.551 -12.797,28.348 -28.348,28.348c-7.515,0 -14.731,-2.989 -20.045,-8.303l-234.941,-234.977l-234.941,234.977c-5.314,5.314 -12.529,8.303 -20.045,8.303c-15.551,0 -28.348,-12.797 -28.348,-28.348c0,-7.515 2.989,-14.731 8.303,-20.045l234.977,-234.941l-234.977,-234.941c-5.314,-5.314 -8.303,-12.529 -8.303,-20.045c0,-15.551 12.797,-28.348 28.348,-28.348c7.515,0 14.731,2.989 20.045,8.303l234.941,234.977l234.941,-234.977c5.314,-5.314 12.529,-8.303 20.045,-8.303c15.551,0 28.348,12.797 28.348,28.348c0,7.515 -2.989,14.731 -8.303,20.045l-234.977,234.941l234.977,234.941Z" style="fill:#473d33;fill-rule:nonzero;"/></svg>