<?xml version="1.0" encoding="UTF-8"?>
<svg xmlns="http://www.w3.org/2000/svg" version="1.1" viewBox="0 0 515 504">
  <!-- Generator: Adobe Illustrator 29.1.0, SVG Export Plug-In . SVG Version: 2.1.0 Build 142)  -->
  <defs>
    <style>
      .st0 {
        fill: #6fa7b3;
      }

      .st1 {
        fill: #fff;
      }

      .st2 {
        opacity: .5;
      }
    </style>
  </defs>
  <g id="contactBackground">
    <rect id="Rectangle_60" class="st0" x="0" y="0" width="515" height="504"/>
  </g>
  <g id="contactFlower2">
    <g id="Group_106" class="st2">
      <g id="Component_1_5">
        <g id="Group_76-2">
          <g id="Group_75-2">
            <path class="st1" d="M469.3,62.7c-6.7,2.6-13.9,3.9-21,3.9s-1.8,0-2.1.5c-.5.9.6,1.5,1.1,2.1,6.6,7.1,10.9,16.1,12.4,25.7,1.8,10.2-5.2,20.1-15.4,21.9-1.5.3-3,.3-4.5.3-9.8-.7-17.3-6-24.4-12.1-4-3.6-7.6-7.7-10.8-12.1-.6-.8-1-2.4-2.2-1.9-.6.2-1,1.6-1.3,2.5-2.3,10.2-8,18.3-15.6,25.1-8.5,7.7-21.1,8.3-29.3,1.3-6-5.3-8.2-12.5-7.8-20.3.6-11,5.4-20.5,11.7-29.3,2.6-3.8,2.6-3.6-1.8-4.6-10.8-2.3-21.2-5.4-29.5-13.1-6.7-6.2-10.6-13.6-8.5-22.9,2.3-10.2,9-16.7,19-19.5,10.1-2.8,19.8-.5,29,3.3,3.9,1.6,8,2.9,11.4,5.5.6.6,1.4.6,2.1.2.6-.6.7-1.6.3-2.5-1.4-4.5-2.2-9.1-2.4-13.8-.9-11.1-.2-21.8,7.5-31,6.5-7.8,20.7-10.9,30.3-7.3,12.2,4.6,18.9,17,18.6,29.7,0,7.8-1.8,15.4-5.3,22.4-.5,1.1-.5,2.2-.1,3.1,4.6-.9,8.8-2.6,13.5-3.4,15.4-2.3,33.7,5.4,38,23.7,2.5,10.5-2.2,18.8-13,22.6Z"/>
          </g>
        </g>
      </g>
    </g>
  </g>
  <g id="contactFlower1">
    <g id="Group_104" class="st2">
      <g id="Component_1_4">
        <g id="Group_76">
          <g id="Group_75">
            <path class="st1" d="M237.4,282c-1,3.8,3.4,4.6,5.9,6.1,30.4,18.8,53.1,44,68.3,76.7,18.8,40.3-3.5,86.9-47,96.4-34.8,7.5-66-3.3-96.6-17.6-17.8-8.3-33.8-19.4-49.4-31.3-2.8-2.1-5.7-7.3-9.7-4.6-1.9,1.3-1.9,6.5-1.7,9.9,1.9,37.5-9.8,71.2-29.2,102.4-22,35.3-64.8,50-100.1,33.6-26.2-12.2-41.2-35-47.4-62.5-8.7-38.8-1.7-76.6,11.5-113.4,5.6-15.6,5.6-15.1-10.8-14-39.5,2.8-78.8,2.2-115.2-16-29.4-14.7-50.5-36.6-52.3-71.1-2.1-37.7,14.5-66.8,46.5-86.3,32.2-19.7,67.9-21.5,104-17.4,15.1,1.7,30.5,2.5,45.1,7.8,2.7.9,5.9,1,7.6-1.5,2-2.9.4-6.4-1.1-8.8-9.5-14.1-16.3-29.6-22.2-45.3-14.3-37.7-22.5-75.7-5-114.7C-46.4-23.4-.3-48.3,36.2-45.3c46.8,3.8,82.6,40,94.3,84.5,7.3,27.5,9.4,54.8,4.1,82.8-.5,3.3.2,7,2.7,10.5,14.9-7.6,28.3-18,43.5-25,51-23.3,122.2-14.5,155.2,44.6,18.8,33.7,11.1,67.3-22.6,91.3-21.2,15.1-43.7,27.6-69.1,34.5-2.5.7-6.5,2-6.9,3.9Z"/>
          </g>
        </g>
      </g>
    </g>
  </g>
</svg>