<?xml version="1.0" encoding="utf-8"?>
<!-- Generator: Adobe Illustrator 27.9.0, SVG Export Plug-In . SVG Version: 6.00 Build 0)  -->
<svg version="1.1" xmlns="http://www.w3.org/2000/svg" xmlns:xlink="http://www.w3.org/1999/xlink" x="0px" y="0px"
	 viewBox="0 0 491.2 496.4" style="enable-background:new 0 0 491.2 496.4;" xml:space="preserve">
<style type="text/css">
	.st0{display:none;}
	.st1{fill:#87B4C0;}
</style>
<g id="Headshot" class="st0">
</g>
<g id="Shape">
	<g id="Group_77" transform="translate(1043.525 -3040.98) rotate(-8)">
		<g id="Component_1_1" transform="translate(-1465 2925.982)">
			<g id="Group_76">
				<g id="Group_75">
					<path class="st1" d="M344.9,260.4c-1.1,2.6,2,3.7,3.7,5.1c20,16.3,34.6,38.2,42,62.9c9.6,31.3-11.5,63-44.1,65.4
						c-26.1,1.9-47.7-9.2-68.6-22.7c-12.1-7.9-22.7-17.6-32.8-27.8c-1.8-1.9-3.4-5.9-6.6-4.4c-1.6,0.8-2.1,4.6-2.3,7.1
						c-2.4,27.5-14.4,50.9-31.8,71.6c-19.6,23.5-52.3,29.8-76.4,14.2c-17.8-11.6-26.4-29.7-28.1-50.4c-2.4-29.2,6.6-56,20-81.5
						c5.7-10.8,5.7-10.5-6.4-11.3c-29.1-2-57.6-6.5-82.3-23.5c-19.9-13.7-33-31.9-30.8-57.2c2.4-27.7,17.4-47.1,42.8-58.1
						c25.4-11.1,51.6-8.7,77.6-2.1c10.8,2.8,22,4.9,32.1,10.3c1.8,1,4.2,1.3,5.7-0.3c1.8-1.9,1-4.6,0-6.6
						c-5.4-11.3-8.8-23.2-11.5-35.3c-6.5-28.9-8.5-57.4,8.2-84c14.4-22.9,50.5-36.4,76.9-30.4C265.6,9,288,39,292,72.6
						c2.5,20.8,1.3,40.9-5.5,60.8c-0.8,2.7-0.5,5.5,0.8,8c11.6-4.1,22.4-10.2,34.3-13.7C361,115.9,412,129.5,430,176
						c10.2,26.5,1.2,50.2-25.9,64.2c-17,8.9-34.7,15.7-53.9,18.1C348.4,258.6,345.4,259.2,344.9,260.4z"/>
				</g>
			</g>
		</g>
	</g>
</g>
</svg>
