<svg width="61" height="61" viewBox="0 0 61 61" fill="none" xmlns="http://www.w3.org/2000/svg">
<g clip-path="url(#clip0_67_73)">
<path d="M30.4493 13.0459C31.5151 11.6076 32.3086 9.99047 33.4522 8.59103C37.2409 3.94956 44.5071 1.41502 50.4663 5.53559C53.8737 7.88354 54.7139 11.4754 52.6134 15.3783C51.2909 17.8351 49.7272 20.1053 47.6111 21.9557C47.4011 22.1423 47.0899 22.461 47.1288 22.6554C47.2144 23.0597 47.6734 22.9353 47.9923 22.9664C51.8043 23.3318 55.1807 24.6846 58.1914 27.0947C61.9023 30.0802 61.9645 35.608 58.2303 38.5701C55.2507 40.9336 51.7343 41.369 48.1168 41.4468C46.0163 41.4934 43.9469 41.1824 41.8931 40.7781C41.5197 40.7082 40.9985 40.3505 40.7417 40.7937C40.6172 41.0114 40.8662 41.509 41.0451 41.8277C43.0056 45.3341 43.4646 49.1281 43.0756 53.0388C42.6322 57.4703 39.2169 60.9067 35.0393 60.9923C31.943 61.0622 29.4302 59.5773 27.5397 57.2293C24.8713 53.9173 23.7588 49.96 23.2765 45.7928C23.0742 44.0279 23.1053 44.0668 21.5805 44.9531C17.9163 47.0912 14.1199 48.8871 9.74772 48.8638C6.23133 48.8482 3.16616 47.7287 1.36129 44.51C-0.614735 40.9881 -0.396905 37.4195 1.75027 34.022C3.90522 30.6089 7.25046 28.7585 10.9147 27.429C12.4472 26.877 13.9643 26.2162 15.6136 26.0452C15.9092 26.0141 16.2281 25.8586 16.2748 25.5476C16.3371 25.1744 16.0103 24.9101 15.7458 24.7546C14.1743 23.8371 12.7818 22.6865 11.467 21.4503C8.32405 18.5115 5.74121 15.2384 5.57784 10.6746C5.43781 6.73289 8.68191 2.16916 12.3461 0.730851C17.0294 -1.11174 22.1718 0.668653 25.4003 4.37717C27.3997 6.67847 28.9011 9.19746 29.7024 12.1363C29.7958 12.4939 30.0447 12.7971 30.4571 13.0304V13.0459H30.4493ZM31.6551 33.3067C33.9501 31.7829 34.7903 28.3231 33.39 26.2006C32.0441 24.1637 29.1501 23.6739 27.034 25.1122C24.7235 26.6827 23.8677 30.1502 25.2681 32.2338C26.5984 34.2085 29.5546 34.7061 31.6629 33.3067H31.6551Z" fill="#D1F7FF"/>
<path d="M33.3822 26.2005C34.7903 28.3229 33.9424 31.7827 31.6474 33.3065C29.5391 34.7059 26.5828 34.2084 25.2525 32.2336C23.8522 30.15 24.708 26.6825 27.0185 25.112C29.1346 23.6659 32.0286 24.1635 33.3744 26.2005H33.3822Z" fill="#6FA7B3"/>
</g>
<defs>
<clipPath id="clip0_67_73">
<rect width="61" height="61" fill="white"/>
</clipPath>
</defs>
</svg>
